<svg width="345" height="200" viewBox="0 0 345 200" fill="none" xmlns="http://www.w3.org/2000/svg">
<g opacity="0.8">
<path d="M153.355 0C191.67 0.000155809 224.369 25.2413 237.191 60.749C238.768 60.7001 240.355 60.6738 241.949 60.6738C298.604 60.674 344.531 91.8633 344.531 130.337C344.531 168.811 298.604 200 241.949 200C226.172 200 211.226 197.58 197.873 193.259H133.256C120.242 197.548 105.174 200 89.1123 200C39.8973 200 0.000185868 176.986 0 148.596C0 125.265 26.9436 105.565 63.8604 99.2842C63.7716 97.5684 63.7256 95.8405 63.7256 94.1016C63.7256 42.1309 103.854 0 153.355 0Z" fill="white"/>
<path d="M152.4 50.3334H142.6C138.367 50.3334 135.833 52.8667 135.833 57.1V66.9C135.833 71.1334 138.367 73.6667 142.6 73.6667H152.4C156.633 73.6667 159.167 71.1334 159.167 66.9V57.1C159.167 52.8667 156.633 50.3334 152.4 50.3334ZM154.067 65.5334C154.9 66.3667 154.9 67.7334 154.067 68.5667C153.633 68.9667 153.067 69.1667 152.533 69.1667C152 69.1667 151.467 68.9667 151.033 68.5667L147.467 65.0334L144 68.5667C143.567 68.9667 143.033 69.1667 142.433 69.1667C141.9 69.1667 141.367 68.9667 140.933 68.5667C140.1 67.7334 140.1 66.3667 140.933 65.5334L144.5 62L140.967 58.5C140.133 57.6667 140.133 56.3 140.967 55.4667C141.8 54.6334 143.167 54.6334 144 55.4667L147.467 59L151 55.4667C151.833 54.6334 153.2 54.6334 154.033 55.4667C154.867 56.3 154.867 57.6667 154.033 58.5L150.533 62L154.067 65.5334Z" fill="#6A7D9C"/>
<path opacity="0.4" d="M187.933 53.6666H158.433C158.9 54.6333 159.167 55.7666 159.167 57.1V66.9C159.167 71.1333 156.633 73.6666 152.4 73.6666H142.6C141.967 73.6666 141.4 73.6 140.833 73.4666V104.1C140.833 113.067 148.1 120.333 157.067 120.333H183.633C184.2 120.333 184.767 120.133 185.2 119.667C190.133 114.7 198.733 106.033 203.567 101.167C204 100.733 204.167 100.233 204.167 99.7333V69.9C204.167 60.9333 196.9 53.6666 187.933 53.6666Z" fill="#6A7D9C"/>
<path d="M204.167 99.7333C204.167 100.233 204 100.733 203.567 101.167C198.733 106.033 190.133 114.7 185.2 119.667C184.767 120.133 184.2 120.333 183.633 120.333C182.533 120.333 181.467 119.467 181.467 118.2V106.533C181.467 101.667 185.6 97.6333 190.667 97.6333C193.833 97.6 198.233 97.6 202 97.6C203.3 97.6 204.167 98.6333 204.167 99.7333Z" fill="#6A7D9C"/>
<path d="M181.767 89.3667H157.033C155.633 89.3667 154.533 88.2334 154.533 86.8667C154.533 85.5 155.667 84.3667 157.033 84.3667H181.767C183.167 84.3667 184.267 85.5 184.267 86.8667C184.267 88.2334 183.167 89.3667 181.767 89.3667Z" fill="#6A7D9C"/>
<path d="M172.5 101.733H157.033C155.633 101.733 154.533 100.6 154.533 99.2333C154.533 97.8333 155.667 96.7333 157.033 96.7333H172.5C173.9 96.7333 175 97.8666 175 99.2333C175 100.6 173.9 101.733 172.5 101.733Z" fill="#6A7D9C"/>
</g>
</svg>
