<svg width="765" height="496" viewBox="0 0 765 496" fill="none" xmlns="http://www.w3.org/2000/svg">
<path d="M29 426.5H92.6997V399.5H29V362H98.7998V335.1H0V492.2H100.1V465.3H29V426.5Z" fill="#C5A57E"/>
<path d="M208.9 472H204.9L174.4 335.1H119.3V492.2H147.8V355.3H151.8L182.3 492.2H237.4V335.1H208.9V472Z" fill="#C5A57E"/>
<path d="M352.5 335.1L320 473.2H316.9L284.4 335.1H254.6L293.6 492.2H343.3L382.4 335.1H352.5Z" fill="#C5A57E"/>
<path d="M417.2 335.1L376.8 492.2H406.7L415 457.6H469.9L478.2 492.2H508.1L467.7 335.1H417.2ZM421.8 430.3L440.5 353.8H444.5L463.2 430.3H421.9H421.8Z" fill="#C5A57E"/>
<path d="M609.4 408.5C601.3 404.8 591.7 401.7 580.7 399.3L575.6 398.2C569.5 396.9 564.4 395.3 560.4 393.5C556.4 391.7 553.5 389.5 551.5 386.8C549.5 384.1 548.5 380.8 548.5 376.9C548.5 371.1 550.6 366.5 554.8 363.1C559 359.7 565.4 358.1 574.2 358.1C583 358.1 585.1 359 589.4 360.7C593.6 362.4 596.9 365.1 599.2 368.8C601.5 372.5 602.6 377.3 602.6 383.3V390H631.1V383.3C631.1 371.9 628.6 362.5 623.7 354.9C618.8 347.3 612.1 341.7 603.5 337.8C594.9 334 585.2 332.1 574.2 332.1C563.2 332.1 553.7 333.9 545.5 337.6C537.4 341.3 531.1 346.5 526.6 353.3C522.1 360.1 519.9 368.3 519.9 377.9C519.9 387.5 521.9 395.3 525.9 401.2C529.9 407.2 535.7 412 543.2 415.7C550.7 419.4 559.8 422.4 570.3 424.8L575.4 425.9C582 427.4 587.6 429 592.2 430.7C596.8 432.4 600.3 434.6 602.7 437.3C605.1 440 606.3 443.5 606.3 447.8C606.3 454.1 603.8 459.3 598.9 463.3C594 467.3 586.6 469.4 576.6 469.4C566.6 469.4 559 467 553.3 462.3C547.6 457.6 544.7 450.5 544.7 441.1V434.8H516.2V441.1C516.2 452.5 518.8 462.2 523.9 470.3C529 478.4 536.1 484.6 545.2 488.9C554.3 493.2 564.7 495.4 576.6 495.4C588.5 495.4 598.7 493.3 607.5 489.2C616.2 485.1 622.9 479.4 627.7 472.1C632.5 464.8 634.8 456.4 634.8 446.8C634.8 437.2 632.5 429.4 628 423.2C623.5 417.1 617.1 412.1 609 408.4L609.4 408.5Z" fill="#C5A57E"/>
<path d="M646.2 335.1V362H691V492.2H720V362H764.8V335.1H646.2Z" fill="#C5A57E"/>
<path d="M476.3 187.7V230.1L432.9 255.2L396.1 276.4L359.4 255.2L313.7 228.8L310.4 226.9L291.3 215.9L313.7 202.9L328 194.7L347.1 205.7L396.1 234L445.1 205.7L476.3 187.7Z" fill="#C5A57E"/>
<path d="M476.3 46.3V88.7L439.7 67.6L396.1 42.4L315.9 88.7L313.7 90V140.4L322.8 135.1L359.5 113.9L396.1 135L396.2 135.1L476.3 88.9V131.1L432.8 156.2L396.1 177.4L377 166.4L359.5 156.3L359.3 156.2L313.7 182.6L310.4 184.5L277 203.8L273.7 205.7L264.6 210.9V168.7L273.8 163.4L277 161.6V68.8L279.2 67.5L313.7 47.6L359.4 21.2L396.1 0L432.8 21.2L476.3 46.3Z" fill="#C5A57E"/>
</svg>
