<svg width="775" height="176" viewBox="0 0 775 176" fill="none" xmlns="http://www.w3.org/2000/svg">
<path d="M229.1 97.1H276.3V77.1H229.1V49.3H280.9V29.4H207.6V145.8H281.8V125.9H229.1V97.1Z" fill="#C5A57E"/>
<path d="M362.5 130.9H359.5L336.9 29.4H296V145.8H317.2V44.3H320.1L342.8 145.8H383.6V29.4H362.5V130.9Z" fill="#C5A57E"/>
<path d="M468.9 29.4L444.8 131.7H442.6L418.5 29.4H396.3L425.3 145.8H462.1L491.1 29.4H468.9Z" fill="#C5A57E"/>
<path d="M516.9 29.4L486.9 145.9H509L515.2 120.3H555.9L562.1 145.9H584.2L554.2 29.4H516.8H516.9ZM520.3 99.9L534.1 43.2H537L550.8 99.9H520.2H520.3Z" fill="#C5A57E"/>
<path d="M659.4 83.8C653.4 81 646.3 78.8 638.2 77L634.5 76.2C629.9 75.2 626.2 74 623.3 72.7C620.4 71.4 618.2 69.7 616.7 67.7C615.2 65.7 614.5 63.3 614.5 60.4C614.5 56.1 616 52.7 619.1 50.2C622.2 47.7 627 46.5 633.5 46.5C640 46.5 641.6 47.1 644.7 48.4C647.8 49.7 650.3 51.7 651.9 54.4C653.6 57.1 654.4 60.7 654.4 65.1V70.1H675.6V65.1C675.6 56.7 673.8 49.7 670.1 44C666.5 38.4 661.5 34.2 655.1 31.4C648.8 28.6 641.5 27.2 633.4 27.2C625.3 27.2 618.2 28.6 612.2 31.3C606.2 34 601.5 37.9 598.2 42.9C594.9 48 593.2 54 593.2 61.1C593.2 68.2 594.7 74 597.7 78.4C600.7 82.8 605 86.4 610.6 89.1C616.2 91.8 622.9 94.1 630.7 95.8L634.4 96.6C639.3 97.7 643.4 98.8999 646.9 100.2C650.3 101.5 652.9 103.1 654.7 105.1C656.5 107.1 657.4 109.7 657.4 112.9C657.4 117.6 655.6 121.4 651.9 124.4C648.3 127.4 642.8 128.9 635.4 128.9C628 128.9 622.4 127.2 618.1 123.7C613.8 120.2 611.8 115 611.8 108V103.3H590.6V108C590.6 116.4 592.5 123.6 596.3 129.6C600.1 135.6 605.4 140.2 612.1 143.4C618.8 146.6 626.6 148.2 635.4 148.2C644.2 148.2 651.8 146.7 658.3 143.6C664.8 140.5 669.7 136.3 673.3 131C676.8 125.6 678.6 119.4 678.6 112.3C678.6 105.2 676.9 99.4 673.6 94.8C670.2 90.3 665.5 86.6 659.5 83.8H659.4Z" fill="#C5A57E"/>
<path d="M686.7 29.4V49.3H719.9V145.8H741.4V49.3H774.6V29.4H686.7Z" fill="#C5A57E"/>
<path d="M134.1 119V145.8L106.6 161.7L83.2998 175.2L60.0996 161.7L31.0996 145L29 143.8L16.8999 136.8L31.0996 128.6L40.1997 123.4L52.2998 130.4L83.2998 148.3L114.4 130.4L134.1 119Z" fill="#C5A57E"/>
<path d="M134.1 29.4V56.2L111 42.9L83.2998 26.9L32.5 56.2L31.0996 57.1V89L36.8999 85.6L60.0996 72.2L83.2998 85.6H83.3999L134.1 56.4V83.1L106.6 99L83.2998 112.4L71.1997 105.5L60.0996 99.1L60 99L31.0996 115.7L29 116.9L7.7998 129.1L5.69971 130.4L0 133.7V106.9L5.8999 103.5L7.7998 102.4V43.6L9.19971 42.8L31.0996 30.2L60 13.5L83.2998 0L106.6 13.5L134.1 29.4Z" fill="#C5A57E"/>
</svg>
