<svg width="765" height="164" viewBox="0 0 765 164" fill="none" xmlns="http://www.w3.org/2000/svg">
<path d="M29 94.4H92.6997V67.4H29V29.9H98.7998V3H0V160.1H100.1V133.2H29V94.4Z" fill="#C5A57E"/>
<path d="M208.9 139.9H204.9L174.4 3H119.3V160.1H147.8V23.2H151.8L182.3 160.1H237.4V3H208.9V139.9Z" fill="#C5A57E"/>
<path d="M352.5 3L320 141.1H316.9L284.4 3H254.6L293.6 160.1H343.3L382.4 3H352.5Z" fill="#C5A57E"/>
<path d="M417.2 3L376.8 160.1H406.7L415 125.5H469.9L478.2 160.1H508.1L467.7 3H417.2ZM421.8 98.2L440.5 21.7H444.5L463.2 98.2H421.9H421.8Z" fill="#C5A57E"/>
<path d="M609.4 76.4C601.3 72.7 591.7 69.6 580.7 67.2L575.6 66.1C569.5 64.8 564.4 63.2 560.4 61.4C556.4 59.6 553.5 57.4 551.5 54.7C549.5 52 548.5 48.7 548.5 44.8C548.5 39 550.6 34.4 554.8 31C559 27.6 565.4 26 574.2 26C583 26 585.1 26.9 589.4 28.6C593.6 30.3 596.9 33 599.2 36.7C601.5 40.4 602.6 45.2 602.6 51.2V57.9H631.1V51.2C631.1 39.7999 628.6 30.4 623.7 22.8C618.8 15.2 612.1 9.59995 603.5 5.69995C594.9 1.89995 585.2 0 574.2 0C563.2 0 553.7 1.8 545.5 5.5C537.4 9.2 531.1 14.4 526.6 21.2C522.1 28 519.9 36.2 519.9 45.8C519.9 55.4 521.9 63.2 525.9 69.1C529.9 75.1 535.7 79.9 543.2 83.6C550.7 87.3 559.8 90.2999 570.3 92.7L575.4 93.8C582 95.3 587.6 96.9 592.2 98.6C596.8 100.3 600.3 102.5 602.7 105.2C605.1 107.9 606.3 111.4 606.3 115.7C606.3 122 603.8 127.2 598.9 131.2C594 135.2 586.6 137.3 576.6 137.3C566.6 137.3 559 134.9 553.3 130.2C547.6 125.5 544.7 118.4 544.7 109V102.7H516.2V109C516.2 120.4 518.8 130.1 523.9 138.2C529 146.3 536.1 152.5 545.2 156.8C554.3 161.1 564.7 163.3 576.6 163.3C588.5 163.3 598.7 161.2 607.5 157.1C616.2 153 622.9 147.3 627.7 140C632.5 132.7 634.8 124.3 634.8 114.7C634.8 105.1 632.5 97.3 628 91.1C623.5 85 617.1 80 609 76.3L609.4 76.4Z" fill="#C5A57E"/>
<path d="M646.2 3V29.9H691V160.1H720V29.9H764.8V3H646.2Z" fill="#C5A57E"/>
</svg>
