<svg width="457" height="597" viewBox="0 0 457 597" fill="none" xmlns="http://www.w3.org/2000/svg">
<path d="M457 405.3V496.9L363.3 551L284 596.8L204.7 551L106 494L98.8999 489.9L57.6001 466.1L106 438.2L136.9 420.3L178.2 444.1L284 505.2L389.7 444.2L457 405.3Z" fill="#C5A57E"/>
<path d="M457 100V191.5L378.1 146L283.9 91.6L110.7 191.6L106 194.3V303.1L125.6 291.7L205 245.9L283.9 291.5L284.3 291.7L457 192V283.1L363.2 337.3L283.9 383.1L242.6 359.3L205 337.5L204.6 337.3L106 394.2L98.8999 398.3L26.7002 440L19.6001 444.1L0 455.4V364.3L20 352.8L26.7002 348.9V148.5L31.3999 145.8L106 102.7L204.6 45.8L283.9 0L363.2 45.8L457 100Z" fill="#C5A57E"/>
</svg>
