<svg width="265" height="251" viewBox="0 0 265 251" fill="none" xmlns="http://www.w3.org/2000/svg">
    <path d="M0.25 90.434L33.25 71.434L62.25 87.934L200.75 8.434L229.25 25.434L264.25 5.434" stroke="white"/>
    <path d="M0.25 100.434L33.25 81.434L62.25 97.934L200.75 18.434L229.25 35.434L264.25 15.434" stroke="white"/>
    <path d="M0.25 110.434L33.25 91.434L62.25 107.934L200.75 28.434L229.25 45.434L264.25 25.434" stroke="white"/>
    <path d="M0.25 120.434L33.25 101.434L62.25 117.934L200.75 38.434L229.25 55.434L264.25 35.434" stroke="white"/>
    <path d="M0.25 130.434L33.25 111.434L62.25 127.934L200.75 48.434L229.25 65.434L264.25 45.434" stroke="white"/>
    <path d="M0.25 140.434L33.25 121.434L62.25 137.934L200.75 58.434L229.25 75.434L264.25 55.434" stroke="white"/>
    <path d="M0.25 150.434L33.25 131.434L62.25 147.934L200.75 68.434L229.25 85.434L264.25 65.434" stroke="white"/>
    <path d="M0.25 160.434L33.25 141.434L62.25 157.934L200.75 78.434L229.25 95.434L264.25 75.434" stroke="white"/>
    <path d="M0.25 170.434L33.25 151.434L62.25 167.934L200.75 88.434L229.25 105.434L264.25 85.434" stroke="white"/>
    <path d="M0.25 180.434L33.25 161.434L62.25 177.934L200.75 98.434L229.25 115.434L264.25 95.434" stroke="white"/>
    <path d="M0.25 190.434L33.25 171.434L62.25 187.934L200.75 108.434L229.25 125.434L264.25 105.434" stroke="white"/>
    <path d="M0.25 200.434L33.25 181.434L62.25 197.934L200.75 118.434L229.25 135.434L264.25 115.434" stroke="white"/>
    <path d="M0.25 210.434L33.25 191.434L62.25 207.934L200.75 128.434L229.25 145.434L264.25 125.434" stroke="white"/>
    <path d="M0.25 220.434L33.25 201.434L62.25 217.934L200.75 138.434L229.25 155.434L264.25 135.434" stroke="white"/>
    <path d="M0.25 230.434L33.25 211.434L62.25 227.934L200.75 148.434L229.25 165.434L264.25 145.434" stroke="white"/>
    <path d="M0.25 240.434L33.25 221.434L62.25 237.934L200.75 158.434L229.25 175.434L264.25 155.434" stroke="white"/>
</svg>
