<svg width="24" height="24" viewBox="0 0 24 24" fill="none" xmlns="http://www.w3.org/2000/svg">
<path opacity="0.4" d="M10.4899 2.23L5.49991 4.10001C4.34991 4.53001 3.40991 5.89 3.40991 7.12V14.55C3.40991 15.73 4.18992 17.28 5.13992 17.99L9.43991 21.2C10.8499 22.26 13.1699 22.26 14.5799 21.2L18.8799 17.99C19.8299 17.28 20.6099 15.73 20.6099 14.55V7.12C20.6099 5.89 19.6699 4.53001 18.5199 4.10001L13.5299 2.23C12.6799 1.92 11.3199 1.92 10.4899 2.23Z" fill="#374151"/>
<path d="M11.8998 11.3C11.9198 11.3 11.9398 11.3 11.9598 11.3H11.9798H11.9998C13.1498 11.26 14.0498 10.33 14.0598 9.17003C14.0598 7.99003 13.0998 7.03003 11.9198 7.03003C10.7398 7.03003 9.77979 7.99003 9.77979 9.17003C9.79979 10.32 10.6998 11.26 11.8998 11.3Z" fill="#374151"/>
<path d="M14.1899 13.4101C12.9799 12.6101 11.0199 12.6101 9.7999 13.4101C9.2399 13.7901 8.90991 14.3301 8.90991 14.8901C8.90991 15.4601 9.2299 15.9801 9.7999 16.3601C10.4099 16.7601 11.1999 16.9701 11.9899 16.9701C12.7799 16.9701 13.5799 16.7701 14.1799 16.3601C14.7399 15.9801 15.0699 15.4401 15.0699 14.8801C15.0799 14.3101 14.7599 13.7901 14.1899 13.4101Z" fill="#374151"/>
</svg>
