<svg width="16" height="16" viewBox="0 0 16 16" fill="none" xmlns="http://www.w3.org/2000/svg">
<g clip-path="url(#clip0_1_1718)">
<path d="M0.37775 5.56525C0.132688 6.333 -3.12445e-05 7.15091 5.51734e-09 7.99994C-3.12445e-05 8.849 0.132719 9.66697 0.377781 10.4347L8 10.7826L15.6222 10.4348C15.8673 9.667 16 8.849 16 8C16 7.15094 15.8673 6.333 15.6222 5.56522L8 5.21741L0.37775 5.56525Z" fill="#F0F0F0"/>
<path d="M15.6222 5.56525L8 5.21744L0.377748 5.56525C0.305123 5.79288 0.242592 6.02497 0.190186 6.26091H15.8097C15.7573 6.02494 15.6948 5.79281 15.6222 5.56525Z" fill="#D80027"/>
<path d="M0.190308 9.73909C0.242651 9.97503 0.305183 10.2071 0.377808 10.4347L0.378558 10.4347L8 10.7826L15.6222 10.4347C15.6948 10.2071 15.7574 9.97503 15.8097 9.73909H0.190308Z" fill="#D80027"/>
<path d="M8 16C11.5692 16 14.5921 13.6624 15.6222 10.4347H0.377808C1.40796 13.6623 4.43084 16 8 16Z" fill="#6DA544"/>
<path d="M8.00003 3.05179e-05C4.43084 6.17679e-05 1.40803 2.33766 0.377808 5.56525L15.6222 5.56528C14.5921 2.33762 11.5693 -7.3211e-07 8.00003 3.05179e-05Z" fill="#338AF3"/>
<path d="M3.6558 3.30448C3.6558 2.5552 4.18239 1.92926 4.88561 1.7757C4.77755 1.75208 4.66539 1.7393 4.5502 1.7393C3.68577 1.7393 2.98499 2.44005 2.98499 3.30451C2.98499 4.16898 3.6857 4.86973 4.5502 4.86973C4.66539 4.86973 4.77752 4.85692 4.88561 4.83333C4.18242 4.6797 3.6558 4.05376 3.6558 3.30448Z" fill="#F0F0F0"/>
<path d="M5.81069 4.01584L5.91663 4.34194H6.2595L5.98213 4.5435L6.08807 4.86959L5.81069 4.66806L5.53325 4.86959L5.63922 4.5435L5.36182 4.34194H5.70469L5.81069 4.01584Z" fill="#F0F0F0"/>
<path d="M6.90511 4.01584L7.01108 4.34194H7.35395L7.07655 4.5435L7.18252 4.86959L6.90511 4.66806L6.62771 4.86959L6.73367 4.5435L6.4563 4.34194H6.79914L6.90511 4.01584Z" fill="#F0F0F0"/>
<path d="M7.99953 4.01584L8.10547 4.34194H8.44838L8.17097 4.5435L8.27691 4.86959L7.99953 4.66806L7.7221 4.86959L7.8281 4.5435L7.55066 4.34194H7.89357L7.99953 4.01584Z" fill="#F0F0F0"/>
<path d="M9.09389 4.01584L9.19986 4.34194H9.54271L9.26533 4.5435L9.3713 4.86959L9.09389 4.66806L8.81646 4.86959L8.92246 4.5435L8.64502 4.34194H8.9879L9.09389 4.01584Z" fill="#F0F0F0"/>
<path d="M10.1883 4.01584L10.2943 4.34194H10.6372L10.3598 4.5435L10.4658 4.86959L10.1883 4.66806L9.91091 4.86959L10.0169 4.5435L9.7395 4.34194H10.0823L10.1883 4.01584Z" fill="#F0F0F0"/>
<path d="M6.90511 2.8775L7.01108 3.20356H7.35395L7.07655 3.40515L7.18252 3.73122L6.90511 3.52969L6.62771 3.73122L6.73367 3.40515L6.4563 3.20356H6.79914L6.90511 2.8775Z" fill="#F0F0F0"/>
<path d="M7.99953 2.8775L8.10547 3.20356H8.44838L8.17097 3.40515L8.27691 3.73122L7.99953 3.52969L7.7221 3.73122L7.8281 3.40515L7.55066 3.20356H7.89357L7.99953 2.8775Z" fill="#F0F0F0"/>
<path d="M9.09389 2.8775L9.19986 3.20356H9.54271L9.26533 3.40515L9.3713 3.73122L9.09389 3.52969L8.81646 3.73122L8.92246 3.40515L8.64502 3.20356H8.9879L9.09389 2.8775Z" fill="#F0F0F0"/>
<path d="M10.1883 2.8775L10.2943 3.20356H10.6372L10.3598 3.40515L10.4658 3.73122L10.1883 3.52969L9.91091 3.73122L10.0169 3.40515L9.7395 3.20356H10.0823L10.1883 2.8775Z" fill="#F0F0F0"/>
<path d="M7.99953 1.73912L8.10547 2.06525H8.44838L8.17097 2.26678L8.27691 2.59291L7.99953 2.39137L7.7221 2.59291L7.8281 2.26678L7.55066 2.06525H7.89357L7.99953 1.73912Z" fill="#F0F0F0"/>
<path d="M9.09389 1.73912L9.19986 2.06525H9.54271L9.26533 2.26678L9.3713 2.59291L9.09389 2.39137L8.81646 2.59291L8.92246 2.26678L8.64502 2.06525H8.9879L9.09389 1.73912Z" fill="#F0F0F0"/>
<path d="M10.1883 1.73912L10.2943 2.06525H10.6372L10.3598 2.26678L10.4658 2.59291L10.1883 2.39137L9.91091 2.59291L10.0169 2.26678L9.7395 2.06525H10.0823L10.1883 1.73912Z" fill="#F0F0F0"/>
</g>
<defs>
<clipPath id="clip0_1_1718">
<rect width="16" height="16" fill="white"/>
</clipPath>
</defs>
</svg>
