<svg width="20" height="20" viewBox="0 0 20 20" fill="none" xmlns="http://www.w3.org/2000/svg">
<path opacity="0.4" d="M15 15.7167H14.3667C13.7 15.7167 13.0667 15.975 12.6 16.4417L11.175 17.85C10.525 18.4917 9.46667 18.4917 8.81667 17.85L7.39166 16.4417C6.925 15.975 6.28333 15.7167 5.625 15.7167H5C3.61667 15.7167 2.5 14.6084 2.5 13.2417V4.15002C2.5 2.78336 3.61667 1.67505 5 1.67505H15C16.3833 1.67505 17.5 2.78336 17.5 4.15002V13.2417C17.5 14.6001 16.3833 15.7167 15 15.7167Z" fill="white"/>
<path d="M8.64995 12.0917H6.41661C6.04994 12.0917 5.70828 11.9167 5.49161 11.6167C5.28328 11.3333 5.23327 10.9833 5.33327 10.65C5.62494 9.75835 6.34161 9.27498 6.97494 8.84164C7.64161 8.39164 8.01661 8.10834 8.01661 7.62501C8.01661 7.19168 7.66661 6.84167 7.23327 6.84167C6.79994 6.84167 6.44995 7.19168 6.44995 7.62501C6.44995 7.96668 6.16662 8.25001 5.82495 8.25001C5.48328 8.25001 5.19995 7.96668 5.19995 7.62501C5.19995 6.50834 6.10827 5.59167 7.23327 5.59167C8.35827 5.59167 9.26661 6.50001 9.26661 7.62501C9.26661 8.80001 8.38329 9.39998 7.67495 9.88331C7.23329 10.1833 6.81661 10.4667 6.60827 10.8417H8.64161C8.98328 10.8417 9.26661 11.125 9.26661 11.4667C9.26661 11.8083 8.99162 12.0917 8.64995 12.0917Z" fill="white"/>
<path d="M13.3667 12.0917C13.0251 12.0917 12.7417 11.8084 12.7417 11.4667V10.8917H11.1084C11.1084 10.8917 11.1084 10.8917 11.1001 10.8917C10.6917 10.8917 10.3167 10.675 10.1084 10.325C9.90007 9.96671 9.90007 9.52504 10.1084 9.17504C10.6751 8.20004 11.3334 7.09167 11.9334 6.12501C12.2001 5.70001 12.7084 5.50838 13.1834 5.64171C13.6584 5.78338 13.9917 6.21669 13.9834 6.71669V9.65004H14.1667C14.5084 9.65004 14.7917 9.93338 14.7917 10.275C14.7917 10.6167 14.5084 10.9 14.1667 10.9H13.9917V11.475C13.9917 11.8167 13.7167 12.0917 13.3667 12.0917ZM12.7417 7.20004C12.2501 8.00004 11.7417 8.85837 11.2834 9.6417H12.7417V7.20004Z" fill="white"/>
</svg>
