<svg width="20" height="20" viewBox="0 0 20 20" fill="none" xmlns="http://www.w3.org/2000/svg">
<path opacity="0.4" d="M13.4917 1.66666H6.50833C3.475 1.66666 1.66667 3.475 1.66667 6.50833V13.4833C1.66667 16.525 3.475 18.3333 6.50833 18.3333H13.4833C16.5167 18.3333 18.325 16.525 18.325 13.4917V6.50833C18.3333 3.475 16.525 1.66666 13.4917 1.66666Z" fill="white"/>
<path d="M6.10833 12.7C5.975 12.7 5.84167 12.6583 5.725 12.5667C5.45 12.3583 5.4 11.9667 5.60833 11.6917L7.59167 9.11666C7.83333 8.80833 8.175 8.60833 8.56667 8.55833C8.95 8.50833 9.34167 8.61667 9.65 8.85833L11.175 10.0583C11.2333 10.1083 11.2917 10.1083 11.3333 10.1C11.3667 10.1 11.425 10.0833 11.475 10.0167L13.4 7.53333C13.6083 7.25833 14.0083 7.20833 14.275 7.425C14.55 7.63333 14.6 8.025 14.3833 8.3L12.4583 10.7833C12.2167 11.0917 11.875 11.2917 11.4833 11.3333C11.0917 11.3833 10.7083 11.275 10.4 11.0333L8.875 9.83333C8.81667 9.78333 8.75 9.78333 8.71667 9.79167C8.68333 9.79167 8.625 9.80833 8.575 9.875L6.59167 12.45C6.48333 12.6167 6.3 12.7 6.10833 12.7Z" fill="white"/>
</svg>
