<svg width="20" height="20" viewBox="0 0 20 20" fill="none" xmlns="http://www.w3.org/2000/svg">
<path d="M8.44155 12.5083L7.58322 11.65L8.40822 10.825C8.64989 10.5833 8.64989 10.1833 8.40822 9.94163C8.16655 9.69996 7.76655 9.69996 7.52489 9.94163L6.69989 10.7666L5.89989 9.96663C5.65822 9.72496 5.25822 9.72496 5.01655 9.96663C4.77489 10.2083 4.77489 10.6083 5.01655 10.85L5.81655 11.65L4.99155 12.475C4.74989 12.7166 4.74989 13.1166 4.99155 13.3583C5.11655 13.4833 5.27489 13.5416 5.43322 13.5416C5.59155 13.5416 5.74989 13.4833 5.87489 13.3583L6.69989 12.5333L7.55822 13.3916C7.68322 13.5166 7.84155 13.575 7.99989 13.575C8.15822 13.575 8.31655 13.5166 8.44155 13.3916C8.68322 13.15 8.68322 12.75 8.44155 12.5083Z" fill="white"/>
<path d="M11.2833 12.5C10.825 12.5 10.4417 12.125 10.4417 11.6667C10.4417 11.2084 10.8083 10.8334 11.2667 10.8334H11.2833C11.7417 10.8334 12.1167 11.2084 12.1167 11.6667C12.1167 12.125 11.75 12.5 11.2833 12.5Z" fill="white"/>
<path d="M14.5668 12.5C14.1084 12.5 13.7251 12.125 13.7251 11.6667C13.7251 11.2084 14.0918 10.8334 14.5501 10.8334H14.5668C15.0251 10.8334 15.4001 11.2084 15.4001 11.6667C15.4001 12.125 15.0334 12.5 14.5668 12.5Z" fill="white"/>
<path d="M12.9166 14.1417C12.4583 14.1417 12.0833 13.775 12.0833 13.3167V13.3C12.0833 12.8417 12.4583 12.4667 12.9166 12.4667C13.3749 12.4667 13.7499 12.8417 13.7499 13.3C13.7499 13.7583 13.3833 14.1417 12.9166 14.1417Z" fill="white"/>
<path d="M12.9166 10.8583C12.4583 10.8583 12.0833 10.4917 12.0833 10.0333V10.0167C12.0833 9.55835 12.4583 9.18335 12.9166 9.18335C13.3749 9.18335 13.7499 9.55835 13.7499 10.0167C13.7499 10.475 13.3833 10.8583 12.9166 10.8583Z" fill="white"/>
<path opacity="0.4" d="M18.3334 9.225V13.875C18.3334 16.3333 16.3334 18.3333 13.8751 18.3333H6.12508C3.66675 18.3333 1.66675 16.3333 1.66675 13.875V9.225C1.66675 6.76666 3.66675 4.76666 6.12508 4.76666H13.8751C16.3334 4.76666 18.3334 6.76666 18.3334 9.225Z" fill="white"/>
<path d="M11.3666 2.25835L11.3583 3.04169C11.35 3.77502 10.7416 4.38335 9.99997 4.38335C9.87497 4.38335 9.79997 4.46669 9.79997 4.57502C9.79997 4.68335 9.8833 4.76669 9.99163 4.76669H8.64997C8.64163 4.70835 8.6333 4.64169 8.6333 4.57502C8.6333 3.82502 9.24163 3.21669 9.9833 3.21669C10.1083 3.21669 10.1916 3.13335 10.1916 3.02502L10.2 2.24169C10.2083 1.92502 10.4666 1.66669 10.7833 1.66669H10.7916C11.1166 1.66669 11.3666 1.93335 11.3666 2.25835Z" fill="white"/>
</svg>
