<svg width="20" height="20" viewBox="0 0 20 20" fill="none" xmlns="http://www.w3.org/2000/svg">
<path d="M10 11.667C5.82505 11.667 2.42505 14.467 2.42505 17.917C2.42505 18.1503 2.60838 18.3337 2.84172 18.3337H17.1584C17.3917 18.3337 17.575 18.1503 17.575 17.917C17.575 14.467 14.175 11.667 10 11.667Z" fill="white"/>
<path d="M9.99992 1.6665C9.01659 1.6665 8.11659 2.00817 7.39992 2.58317C6.44159 3.3415 5.83325 4.5165 5.83325 5.83317C5.83325 6.6165 6.04992 7.34984 6.44159 7.97484C7.15825 9.18317 8.47492 9.99984 9.99992 9.99984C11.0499 9.99984 12.0083 9.6165 12.7416 8.95817C13.0666 8.68317 13.3499 8.34984 13.5666 7.97484C13.9499 7.34984 14.1666 6.6165 14.1666 5.83317C14.1666 3.53317 12.2999 1.6665 9.99992 1.6665ZM12.1583 5.38317L9.93325 7.43317C9.78325 7.57484 9.59159 7.6415 9.39992 7.6415C9.19992 7.6415 8.99992 7.5665 8.84992 7.4165L7.82492 6.38317C7.51659 6.07484 7.51659 5.58317 7.82492 5.27484C8.13325 4.9665 8.62492 4.9665 8.93325 5.27484L9.42492 5.7665L11.0999 4.22484C11.4166 3.93317 11.9083 3.94984 12.1999 4.2665C12.4916 4.5915 12.4749 5.0915 12.1583 5.38317Z" fill="white"/>
</svg>
