<svg width="20" height="20" viewBox="0 0 20 20" fill="none" xmlns="http://www.w3.org/2000/svg">
<path d="M13.9583 2.96667V1.66667C13.9583 1.32501 13.675 1.04167 13.3333 1.04167C12.9917 1.04167 12.7083 1.32501 12.7083 1.66667V2.91667H7.29167V1.66667C7.29167 1.32501 7.00833 1.04167 6.66667 1.04167C6.325 1.04167 6.04166 1.32501 6.04166 1.66667V2.96667C3.79166 3.175 2.7 4.51667 2.53333 6.50834C2.51667 6.75 2.71667 6.95 2.95 6.95H17.05C17.2917 6.95 17.4917 6.74167 17.4667 6.50834C17.3 4.51667 16.2083 3.175 13.9583 2.96667Z" fill="white"/>
<path opacity="0.4" d="M17.5 9.03333V10.4833C17.5 10.9917 17.05 11.3833 16.55 11.3C16.3167 11.2667 16.075 11.2417 15.8333 11.2417C13.3083 11.2417 11.25 13.3 11.25 15.825C11.25 16.2083 11.4 16.7417 11.5583 17.225C11.7417 17.7667 11.3417 18.325 10.7667 18.325H6.66667C3.75 18.325 2.5 16.6583 2.5 14.1583V9.02498C2.5 8.56665 2.875 8.19165 3.33333 8.19165H16.6667C17.125 8.19998 17.5 8.57499 17.5 9.03333Z" fill="white"/>
<path d="M15.8333 12.5C13.9917 12.5 12.5 13.9917 12.5 15.8333C12.5 16.4583 12.675 17.05 12.9833 17.55C13.5583 18.5167 14.6167 19.1667 15.8333 19.1667C17.05 19.1667 18.1083 18.5167 18.6833 17.55C18.9917 17.05 19.1667 16.4583 19.1667 15.8333C19.1667 13.9917 17.675 12.5 15.8333 12.5ZM17.5583 15.475L15.7833 17.1167C15.6667 17.225 15.5083 17.2833 15.3583 17.2833C15.2 17.2833 15.0417 17.225 14.9167 17.1L14.0917 16.275C13.85 16.0333 13.85 15.6333 14.0917 15.3917C14.3333 15.15 14.7333 15.15 14.975 15.3917L15.375 15.7917L16.7083 14.5583C16.9583 14.325 17.3583 14.3417 17.5917 14.5917C17.825 14.8417 17.8083 15.2333 17.5583 15.475Z" fill="white"/>
<path d="M7.08333 12.5C6.86667 12.5 6.65 12.4083 6.49167 12.2583C6.34167 12.1 6.25 11.8833 6.25 11.6667C6.25 11.45 6.34167 11.2333 6.49167 11.075C6.68333 10.8833 6.975 10.7917 7.25 10.85C7.3 10.8583 7.35 10.875 7.4 10.9C7.45 10.9167 7.5 10.9417 7.55 10.975C7.59166 11.0083 7.63333 11.0417 7.675 11.075C7.825 11.2333 7.91667 11.45 7.91667 11.6667C7.91667 11.8833 7.825 12.1 7.675 12.2583C7.63333 12.2917 7.59166 12.325 7.55 12.3583C7.5 12.3917 7.45 12.4167 7.4 12.4333C7.35 12.4583 7.3 12.475 7.25 12.4833C7.19166 12.4917 7.13333 12.5 7.08333 12.5Z" fill="white"/>
<path d="M10 12.5C9.78333 12.5 9.56667 12.4083 9.40834 12.2583C9.25834 12.1 9.16667 11.8833 9.16667 11.6667C9.16667 11.45 9.25834 11.2333 9.40834 11.075C9.725 10.7667 10.2833 10.7667 10.5917 11.075C10.7417 11.2333 10.8333 11.45 10.8333 11.6667C10.8333 11.8833 10.7417 12.1 10.5917 12.2583C10.4333 12.4083 10.2167 12.5 10 12.5Z" fill="white"/>
<path d="M7.08333 15.4167C6.86667 15.4167 6.65 15.325 6.49167 15.175C6.34167 15.0167 6.25 14.8 6.25 14.5833C6.25 14.3667 6.34167 14.15 6.49167 13.9917C6.575 13.9167 6.65834 13.8583 6.76667 13.8167C7.075 13.6833 7.44167 13.7583 7.675 13.9917C7.825 14.15 7.91667 14.3667 7.91667 14.5833C7.91667 14.8 7.825 15.0167 7.675 15.175C7.51667 15.325 7.3 15.4167 7.08333 15.4167Z" fill="white"/>
</svg>
