<svg width="20" height="20" viewBox="0 0 20 20" fill="none" xmlns="http://www.w3.org/2000/svg">
<path opacity="0.4" d="M13.5333 3.04166H6.46667C4.40833 3.04166 2.74166 4.71666 2.74166 6.76666V14.6083C2.74166 16.6583 4.41667 18.3333 6.46667 18.3333H13.525C15.5833 18.3333 17.25 16.6583 17.25 14.6083V6.76666C17.2583 4.70832 15.5833 3.04166 13.5333 3.04166Z" fill="white"/>
<path d="M11.9583 1.66666H8.04167C7.175 1.66666 6.46667 2.36666 6.46667 3.23332V4.01666C6.46667 4.88332 7.16667 5.58332 8.03333 5.58332H11.9583C12.825 5.58332 13.525 4.88332 13.525 4.01666V3.23332C13.5333 2.36666 12.825 1.66666 11.9583 1.66666Z" fill="white"/>
<path d="M12.5 10.7917H6.66667C6.325 10.7917 6.04167 10.5083 6.04167 10.1667C6.04167 9.82499 6.325 9.54166 6.66667 9.54166H12.5C12.8417 9.54166 13.125 9.82499 13.125 10.1667C13.125 10.5083 12.8417 10.7917 12.5 10.7917Z" fill="white"/>
<path d="M10.3167 14.125H6.66667C6.325 14.125 6.04167 13.8417 6.04167 13.5C6.04167 13.1583 6.325 12.875 6.66667 12.875H10.3167C10.6583 12.875 10.9417 13.1583 10.9417 13.5C10.9417 13.8417 10.6583 14.125 10.3167 14.125Z" fill="white"/>
</svg>
