<svg width="20" height="20" viewBox="0 0 20 20" fill="none" xmlns="http://www.w3.org/2000/svg">
<path d="M13.4915 1.6665H6.50817C3.47484 1.6665 1.6665 3.47484 1.6665 6.50817V13.4832C1.6665 16.5248 3.47484 18.3332 6.50817 18.3332H13.4832C16.5165 18.3332 18.3248 16.5248 18.3248 13.4915V6.50817C18.3332 3.47484 16.5248 1.6665 13.4915 1.6665ZM14.0665 9.60817C14.0665 9.93317 13.8082 10.1915 13.4832 10.1915C13.1582 10.1915 12.8998 9.93317 12.8998 9.60817V9.45817L10.6332 11.7248C10.5082 11.8498 10.3415 11.9082 10.1665 11.8915C9.9915 11.8748 9.83317 11.7832 9.7415 11.6332L8.8915 10.3665L6.90817 12.3498C6.7915 12.4665 6.64984 12.5165 6.49984 12.5165C6.34984 12.5165 6.19984 12.4582 6.0915 12.3498C5.8665 12.1248 5.8665 11.7582 6.0915 11.5248L8.57484 9.0415C8.69984 8.9165 8.8665 8.85817 9.0415 8.87484C9.2165 8.8915 9.37484 8.98317 9.4665 9.13317L10.3165 10.3998L12.0748 8.6415H11.9248C11.5998 8.6415 11.3415 8.38317 11.3415 8.05817C11.3415 7.73317 11.5998 7.47484 11.9248 7.47484H13.4748C13.5498 7.47484 13.6248 7.4915 13.6998 7.5165C13.8415 7.57484 13.9582 7.6915 14.0165 7.83317C14.0498 7.90817 14.0582 7.98317 14.0582 8.05817V9.60817H14.0665Z" fill="white"/>
</svg>
