<svg width="20" height="20" viewBox="0 0 20 20" fill="none" xmlns="http://www.w3.org/2000/svg">
<path opacity="0.4" d="M7.5 6.00002V13.9917C7.5 16.6667 9.16667 18.3334 11.8333 18.3334H13.9917C16.6583 18.3334 18.325 16.6667 18.325 14V6.00002C18.3333 3.33335 16.6667 1.66669 14 1.66669H11.8333C9.16667 1.66669 7.5 3.33335 7.5 6.00002Z" fill="white"/>
<path d="M4.64167 6.76666L1.85 9.55833C1.60833 9.8 1.60833 10.2 1.85 10.4417L4.64167 13.2333C4.88333 13.475 5.28333 13.475 5.525 13.2333C5.76667 12.9917 5.76667 12.5917 5.525 12.35L3.8 10.625H12.7083C13.05 10.625 13.3333 10.3417 13.3333 10C13.3333 9.65833 13.05 9.375 12.7083 9.375H3.8L5.525 7.65C5.65 7.525 5.70833 7.36666 5.70833 7.20833C5.70833 7.05 5.65 6.88333 5.525 6.76666C5.28333 6.51666 4.89167 6.51666 4.64167 6.76666Z" fill="white"/>
</svg>
