<svg width="20" height="20" viewBox="0 0 20 20" fill="none" xmlns="http://www.w3.org/2000/svg">
<path opacity="0.4" d="M1.66667 10.8083V5.82501C1.66667 3.525 3.53333 1.66667 5.83333 1.66667H14.1667C16.4667 1.66667 18.3333 3.525 18.3333 5.82501V11.6417C18.3333 13.9333 16.4667 15.7917 14.1667 15.7917H12.9167C12.6583 15.7917 12.4083 15.9167 12.25 16.125L11 17.7833C10.45 18.5167 9.55 18.5167 9 17.7833L7.75 16.125C7.61667 15.9417 7.31667 15.7917 7.08333 15.7917H5.83333C3.53333 15.7917 1.66667 13.9333 1.66667 11.6417V10.8083Z" fill="white"/>
<path d="M10 10C9.53333 10 9.16667 9.625 9.16667 9.16666C9.16667 8.70833 9.54167 8.33333 10 8.33333C10.4583 8.33333 10.8333 8.70833 10.8333 9.16666C10.8333 9.625 10.4667 10 10 10Z" fill="white"/>
<path d="M13.3333 10C12.8667 10 12.5 9.625 12.5 9.16666C12.5 8.70833 12.875 8.33333 13.3333 8.33333C13.7917 8.33333 14.1667 8.70833 14.1667 9.16666C14.1667 9.625 13.8 10 13.3333 10Z" fill="white"/>
<path d="M6.66667 10C6.2 10 5.83333 9.625 5.83333 9.16666C5.83333 8.70833 6.20833 8.33333 6.66667 8.33333C7.125 8.33333 7.5 8.70833 7.5 9.16666C7.5 9.625 7.13333 10 6.66667 10Z" fill="white"/>
</svg>
