<svg width="20" height="20" viewBox="0 0 20 20" fill="none" xmlns="http://www.w3.org/2000/svg">
<path opacity="0.4" d="M14.6083 6.47499C14.55 6.46666 14.4917 6.46666 14.4333 6.47499C13.1417 6.43333 12.1167 5.37499 12.1167 4.07499C12.1167 2.74999 13.1917 1.66666 14.525 1.66666C15.85 1.66666 16.9333 2.74166 16.9333 4.07499C16.925 5.37499 15.9 6.43333 14.6083 6.47499Z" fill="white"/>
<path opacity="0.4" d="M17.325 12.25C16.3917 12.875 15.0833 13.1083 13.875 12.95C14.1917 12.2667 14.3583 11.5083 14.3667 10.7083C14.3667 9.875 14.1833 9.08333 13.8333 8.39167C15.0667 8.225 16.375 8.45832 17.3167 9.08332C18.6333 9.94999 18.6333 11.375 17.325 12.25Z" fill="white"/>
<path opacity="0.4" d="M5.36667 6.47499C5.425 6.46666 5.48333 6.46666 5.54167 6.47499C6.83333 6.43333 7.85833 5.37499 7.85833 4.07499C7.85833 2.74999 6.78333 1.66666 5.45 1.66666C4.125 1.66666 3.04167 2.74166 3.04167 4.07499C3.05 5.37499 4.075 6.43333 5.36667 6.47499Z" fill="white"/>
<path opacity="0.4" d="M5.45833 10.7083C5.45833 11.5167 5.63333 12.2833 5.95 12.975C4.775 13.1 3.55 12.85 2.65 12.2583C1.33333 11.3833 1.33333 9.95833 2.65 9.08333C3.54167 8.48333 4.8 8.24167 5.98333 8.37501C5.64167 9.07501 5.45833 9.86668 5.45833 10.7083Z" fill="white"/>
<path d="M10.1 13.225C10.0333 13.2167 9.95833 13.2167 9.88333 13.225C8.35 13.175 7.125 11.9167 7.125 10.3667C7.125 8.78334 8.4 7.5 9.99167 7.5C11.575 7.5 12.8583 8.78334 12.8583 10.3667C12.8583 11.9167 11.6417 13.175 10.1 13.225Z" fill="white"/>
<path d="M7.39166 14.95C6.13333 15.7917 6.13333 17.175 7.39166 18.0083C8.825 18.9667 11.175 18.9667 12.6083 18.0083C13.8667 17.1667 13.8667 15.7833 12.6083 14.95C11.1833 13.9917 8.83333 13.9917 7.39166 14.95Z" fill="white"/>
</svg>
