<svg width="20" height="20" viewBox="0 0 20 20" fill="none" xmlns="http://www.w3.org/2000/svg">
<path d="M7.5 1.66666C5.31667 1.66666 3.54167 3.44166 3.54167 5.62499C3.54167 7.76666 5.21667 9.49999 7.4 9.57499C7.46667 9.56666 7.53333 9.56666 7.58333 9.57499C7.6 9.57499 7.60833 9.57499 7.625 9.57499C7.63333 9.57499 7.63333 9.57499 7.64167 9.57499C9.775 9.49999 11.45 7.76666 11.4583 5.62499C11.4583 3.44166 9.68333 1.66666 7.5 1.66666Z" fill="white"/>
<path d="M11.7333 11.7917C9.40834 10.2417 5.61667 10.2417 3.275 11.7917C2.21667 12.5 1.63334 13.4583 1.63334 14.4833C1.63334 15.5083 2.21667 16.4583 3.26667 17.1583C4.43334 17.9417 5.96667 18.3333 7.5 18.3333C9.03334 18.3333 10.5667 17.9417 11.7333 17.1583C12.7833 16.45 13.3667 15.5 13.3667 14.4667C13.3583 13.4417 12.7833 12.4917 11.7333 11.7917Z" fill="white"/>
<path d="M16.6583 6.11668C16.7917 7.73335 15.6417 9.15001 14.05 9.34168C14.0417 9.34168 14.0417 9.34168 14.0333 9.34168H14.0083C13.9583 9.34168 13.9083 9.34168 13.8667 9.35834C13.0583 9.40001 12.3167 9.14168 11.7583 8.66668C12.6167 7.90001 13.1083 6.75001 13.0083 5.50001C12.95 4.82501 12.7167 4.20835 12.3667 3.68335C12.6833 3.52501 13.05 3.42501 13.425 3.39168C15.0583 3.25001 16.5167 4.46668 16.6583 6.11668Z" fill="white"/>
<path d="M18.325 13.825C18.2583 14.6333 17.7417 15.3333 16.875 15.8083C16.0417 16.2667 14.9917 16.4833 13.95 16.4583C14.55 15.9167 14.9 15.2417 14.9667 14.525C15.05 13.4917 14.5583 12.5 13.575 11.7083C13.0167 11.2667 12.3667 10.9167 11.6583 10.6583C13.5 10.125 15.8167 10.4833 17.2417 11.6333C18.0083 12.25 18.4 13.025 18.325 13.825Z" fill="white"/>
</svg>
