<svg width="150" height="36" viewBox="0 0 150 36" fill="none" xmlns="http://www.w3.org/2000/svg">
<rect width="150" height="36" rx="10" fill="#1F2937"/>
<path d="M39.692 22.5V19.176L40.04 20.136L36.392 14.1H38.06L40.988 18.96H40.052L43.004 14.1H44.54L40.892 20.136L41.252 19.176V22.5H39.692ZM47.7077 22.584C47.1637 22.584 46.6837 22.484 46.2677 22.284C45.8517 22.076 45.5277 21.764 45.2957 21.348C45.0637 20.924 44.9477 20.392 44.9477 19.752V16.092H46.4477V19.548C46.4477 20.124 46.5757 20.556 46.8317 20.844C47.0957 21.124 47.4677 21.264 47.9477 21.264C48.2997 21.264 48.6037 21.192 48.8597 21.048C49.1237 20.904 49.3277 20.688 49.4717 20.4C49.6237 20.112 49.6997 19.756 49.6997 19.332V16.092H51.1997V22.5H49.7717V20.772L50.0237 21.3C49.8077 21.716 49.4917 22.036 49.0757 22.26C48.6597 22.476 48.2037 22.584 47.7077 22.584ZM56.7157 22.584C56.1717 22.584 55.6877 22.464 55.2637 22.224C54.8397 21.984 54.5037 21.624 54.2557 21.144C54.0157 20.656 53.8957 20.04 53.8957 19.296C53.8957 18.544 54.0197 17.928 54.2677 17.448C54.5237 16.968 54.8637 16.612 55.2877 16.38C55.7197 16.14 56.1957 16.02 56.7157 16.02C57.3477 16.02 57.9037 16.156 58.3837 16.428C58.8717 16.7 59.2557 17.08 59.5357 17.568C59.8237 18.056 59.9677 18.632 59.9677 19.296C59.9677 19.96 59.8237 20.536 59.5357 21.024C59.2557 21.512 58.8717 21.896 58.3837 22.176C57.9037 22.448 57.3477 22.584 56.7157 22.584ZM53.1637 22.5V13.596H54.6637V17.58L54.5437 19.284L54.5917 20.988V22.5H53.1637ZM56.5477 21.3C56.9077 21.3 57.2277 21.22 57.5077 21.06C57.7957 20.9 58.0237 20.668 58.1917 20.364C58.3597 20.06 58.4437 19.704 58.4437 19.296C58.4437 18.88 58.3597 18.524 58.1917 18.228C58.0237 17.924 57.7957 17.692 57.5077 17.532C57.2277 17.372 56.9077 17.292 56.5477 17.292C56.1877 17.292 55.8637 17.372 55.5757 17.532C55.2877 17.692 55.0597 17.924 54.8917 18.228C54.7237 18.524 54.6397 18.88 54.6397 19.296C54.6397 19.704 54.7237 20.06 54.8917 20.364C55.0597 20.668 55.2877 20.9 55.5757 21.06C55.8637 21.22 56.1877 21.3 56.5477 21.3ZM64.2703 22.584C63.6143 22.584 63.0303 22.444 62.5183 22.164C62.0063 21.876 61.6023 21.484 61.3063 20.988C61.0103 20.492 60.8623 19.928 60.8623 19.296C60.8623 18.656 61.0103 18.092 61.3063 17.604C61.6023 17.108 62.0063 16.72 62.5183 16.44C63.0303 16.16 63.6143 16.02 64.2703 16.02C64.9343 16.02 65.5223 16.16 66.0343 16.44C66.5543 16.72 66.9583 17.104 67.2463 17.592C67.5423 18.08 67.6903 18.648 67.6903 19.296C67.6903 19.928 67.5423 20.492 67.2463 20.988C66.9583 21.484 66.5543 21.876 66.0343 22.164C65.5223 22.444 64.9343 22.584 64.2703 22.584ZM64.2703 21.3C64.6383 21.3 64.9663 21.22 65.2543 21.06C65.5423 20.9 65.7663 20.668 65.9263 20.364C66.0943 20.06 66.1783 19.704 66.1783 19.296C66.1783 18.88 66.0943 18.524 65.9263 18.228C65.7663 17.924 65.5423 17.692 65.2543 17.532C64.9663 17.372 64.6423 17.292 64.2823 17.292C63.9143 17.292 63.5863 17.372 63.2983 17.532C63.0183 17.692 62.7943 17.924 62.6263 18.228C62.4583 18.524 62.3743 18.88 62.3743 19.296C62.3743 19.704 62.4583 20.06 62.6263 20.364C62.7943 20.668 63.0183 20.9 63.2983 21.06C63.5863 21.22 63.9103 21.3 64.2703 21.3ZM69.1246 22.5V16.092H70.5526V17.856L70.3846 17.34C70.5766 16.908 70.8766 16.58 71.2846 16.356C71.7006 16.132 72.2166 16.02 72.8326 16.02V17.448C72.7686 17.432 72.7086 17.424 72.6526 17.424C72.5966 17.416 72.5406 17.412 72.4846 17.412C71.9166 17.412 71.4646 17.58 71.1286 17.916C70.7926 18.244 70.6246 18.736 70.6246 19.392V22.5H69.1246ZM74.1051 22.5V16.092H75.6051V22.5H74.1051ZM74.8611 15.036C74.5811 15.036 74.3491 14.948 74.1651 14.772C73.9891 14.596 73.9011 14.384 73.9011 14.136C73.9011 13.88 73.9891 13.668 74.1651 13.5C74.3491 13.324 74.5811 13.236 74.8611 13.236C75.1411 13.236 75.3691 13.32 75.5451 13.488C75.7291 13.648 75.8211 13.852 75.8211 14.1C75.8211 14.364 75.7331 14.588 75.5571 14.772C75.3811 14.948 75.1491 15.036 74.8611 15.036ZM79.5538 22.584C79.0178 22.584 78.5018 22.516 78.0058 22.38C77.5178 22.236 77.1298 22.064 76.8418 21.864L77.4178 20.724C77.7058 20.908 78.0498 21.06 78.4498 21.18C78.8498 21.3 79.2498 21.36 79.6498 21.36C80.1218 21.36 80.4618 21.296 80.6698 21.168C80.8858 21.04 80.9938 20.868 80.9938 20.652C80.9938 20.476 80.9218 20.344 80.7778 20.256C80.6338 20.16 80.4458 20.088 80.2138 20.04C79.9818 19.992 79.7218 19.948 79.4338 19.908C79.1538 19.868 78.8698 19.816 78.5818 19.752C78.3018 19.68 78.0458 19.58 77.8138 19.452C77.5818 19.316 77.3938 19.136 77.2498 18.912C77.1058 18.688 77.0338 18.392 77.0338 18.024C77.0338 17.616 77.1498 17.264 77.3818 16.968C77.6138 16.664 77.9378 16.432 78.3538 16.272C78.7778 16.104 79.2778 16.02 79.8538 16.02C80.2858 16.02 80.7218 16.068 81.1618 16.164C81.6018 16.26 81.9658 16.396 82.2538 16.572L81.6778 17.712C81.3738 17.528 81.0658 17.404 80.7538 17.34C80.4498 17.268 80.1458 17.232 79.8418 17.232C79.3858 17.232 79.0458 17.3 78.8218 17.436C78.6058 17.572 78.4978 17.744 78.4978 17.952C78.4978 18.144 78.5698 18.288 78.7138 18.384C78.8578 18.48 79.0458 18.556 79.2778 18.612C79.5098 18.668 79.7658 18.716 80.0458 18.756C80.3338 18.788 80.6178 18.84 80.8978 18.912C81.1778 18.984 81.4338 19.084 81.6658 19.212C81.9058 19.332 82.0978 19.504 82.2418 19.728C82.3858 19.952 82.4578 20.244 82.4578 20.604C82.4578 21.004 82.3378 21.352 82.0978 21.648C81.8658 21.944 81.5338 22.176 81.1018 22.344C80.6698 22.504 80.1538 22.584 79.5538 22.584ZM87.3856 16.02C87.8976 16.02 88.3536 16.12 88.7536 16.32C89.1616 16.52 89.4816 16.828 89.7136 17.244C89.9456 17.652 90.0616 18.18 90.0616 18.828V22.5H88.5616V19.02C88.5616 18.452 88.4256 18.028 88.1536 17.748C87.8896 17.468 87.5176 17.328 87.0376 17.328C86.6856 17.328 86.3736 17.4 86.1016 17.544C85.8296 17.688 85.6176 17.904 85.4656 18.192C85.3216 18.472 85.2496 18.828 85.2496 19.26V22.5H83.7496V13.596H85.2496V17.82L84.9256 17.292C85.1496 16.884 85.4736 16.572 85.8976 16.356C86.3296 16.132 86.8256 16.02 87.3856 16.02Z" fill="white"/>
<path d="M102.433 14.2134L108.093 12.3268C110.633 11.4801 112.013 12.8668 111.173 15.4068L109.287 21.0668C108.02 24.8734 105.94 24.8734 104.673 21.0668L104.113 19.3868L102.433 18.8268C98.6267 17.5601 98.6267 15.4868 102.433 14.2134Z" stroke="white" stroke-width="1.5" stroke-linecap="round" stroke-linejoin="round"/>
<path d="M104.24 19.1004L106.627 16.707" stroke="white" stroke-width="1.5" stroke-linecap="round" stroke-linejoin="round"/>
</svg>
