<svg width="20" height="20" viewBox="0 0 20 20" fill="none" xmlns="http://www.w3.org/2000/svg">
<path opacity="0.4" d="M1.66667 10.7333V9.26666C1.66667 8.4 2.375 7.68333 3.25 7.68333C4.75833 7.68333 5.375 6.61666 4.61667 5.30833C4.18333 4.55833 4.44167 3.58333 5.2 3.15L6.64167 2.325C7.3 1.93333 8.15 2.16666 8.54167 2.825L8.63333 2.98333C9.38333 4.29166 10.6167 4.29166 11.375 2.98333L11.4667 2.825C11.8583 2.16666 12.7083 1.93333 13.3667 2.325L14.8083 3.15C15.5667 3.58333 15.825 4.55833 15.3917 5.30833C14.6333 6.61666 15.25 7.68333 16.7583 7.68333C17.625 7.68333 18.3417 8.39166 18.3417 9.26666V10.7333C18.3417 11.6 17.6333 12.3167 16.7583 12.3167C15.25 12.3167 14.6333 13.3833 15.3917 14.6917C15.825 15.45 15.5667 16.4167 14.8083 16.85L13.3667 17.675C12.7083 18.0667 11.8583 17.8333 11.4667 17.175L11.375 17.0167C10.625 15.7083 9.39167 15.7083 8.63333 17.0167L8.54167 17.175C8.15 17.8333 7.3 18.0667 6.64167 17.675L5.2 16.85C4.44167 16.4167 4.18333 15.4417 4.61667 14.6917C5.375 13.3833 4.75833 12.3167 3.25 12.3167C2.375 12.3167 1.66667 11.6 1.66667 10.7333Z" fill="white"/>
<path d="M10 12.7083C11.4958 12.7083 12.7083 11.4958 12.7083 9.99999C12.7083 8.50422 11.4958 7.29166 10 7.29166C8.50423 7.29166 7.29167 8.50422 7.29167 9.99999C7.29167 11.4958 8.50423 12.7083 10 12.7083Z" fill="white"/>
</svg>
