<svg width="24" height="24" viewBox="0 0 24 24" fill="none" xmlns="http://www.w3.org/2000/svg">
<path d="M18.7831 12.8735H20.7386C21.634 12.8735 22.3624 12.145 22.3624 11.2497V8.05031C22.3624 7.28367 21.8282 6.63984 21.1125 6.47048C20.4915 4.69659 19.3423 3.11067 17.8383 1.96617C16.148 0.679922 14.129 0 11.9996 0C9.87027 0 7.85127 0.679922 6.16091 1.96617C4.65688 3.11067 3.50769 4.69655 2.88664 6.47048C2.171 6.63989 1.63672 7.28367 1.63672 8.05031V11.2496C1.63672 12.145 2.36516 12.8734 3.26052 12.8734H5.216C5.63455 13.7508 6.21837 14.5346 6.92703 15.1846C4.11373 15.197 1.82881 17.4893 1.82881 20.3054V24H22.1703V20.3055C22.1703 17.4893 19.8853 15.197 17.0721 15.1846C17.7807 14.5346 18.3645 13.7507 18.7831 12.8735ZM20.9367 8.05027V11.2496C20.9367 11.3588 20.8478 11.4476 20.7387 11.4476H19.5109V9.65002C19.5109 9.64941 19.5109 9.64884 19.5109 9.64819C19.5109 9.58594 19.5101 9.52387 19.5086 9.46106C19.5086 9.46059 19.5085 9.46012 19.5085 9.45966C19.5083 9.45253 19.508 9.44541 19.5078 9.43828C19.5075 9.43097 19.5073 9.42366 19.5071 9.41634L19.5058 9.3825C19.5047 9.34659 19.5034 9.31078 19.5017 9.27581C19.5017 9.27558 19.5016 9.27534 19.5016 9.27516C19.5008 9.25781 19.4996 9.24052 19.4986 9.22317C19.4984 9.22102 19.4983 9.21891 19.4982 9.21675L19.4957 9.17691C19.494 9.14775 19.4922 9.11869 19.49 9.08869C19.49 9.08855 19.49 9.08845 19.49 9.08831C19.488 9.06272 19.4857 9.03717 19.4835 9.01163L19.4816 8.98913C19.4793 8.96283 19.4771 8.93658 19.4745 8.91037C19.4714 8.87916 19.4679 8.84808 19.4645 8.81695L19.4625 8.79998C19.4605 8.78194 19.4584 8.76384 19.4562 8.74575C19.4515 8.70595 19.4463 8.66634 19.4409 8.62678L19.4389 8.61244C19.4357 8.58891 19.4324 8.56538 19.429 8.5425C19.4239 8.50828 19.4185 8.47425 19.4129 8.44017C19.4091 8.41692 19.4054 8.39405 19.4016 8.37225C19.3719 8.19938 19.3361 8.02856 19.2948 7.85995C19.2942 7.85742 19.2935 7.85484 19.2929 7.85231H20.7386C20.8478 7.85227 20.9367 7.94109 20.9367 8.05027ZM4.70403 7.86141C4.66072 8.03794 4.62378 8.21681 4.59322 8.39789C4.5912 8.41003 4.58914 8.42208 4.58717 8.43422L4.58591 8.44205C4.56762 8.55464 4.55192 8.66808 4.5387 8.78236C4.53781 8.79033 4.53678 8.79834 4.53594 8.80636L4.53528 8.81217C4.53181 8.84311 4.52825 8.87405 4.5252 8.90508C4.5252 8.90517 4.5252 8.90527 4.52516 8.90541C4.52239 8.9332 4.52005 8.96114 4.51766 8.98913L4.51578 9.01087C4.51344 9.03867 4.51095 9.06642 4.50889 9.09427C4.50687 9.12169 4.50523 9.1492 4.5035 9.17672L4.50102 9.21703C4.50102 9.21741 4.50097 9.21778 4.50097 9.21811C4.49984 9.23817 4.49848 9.25823 4.4975 9.27834C4.49567 9.31528 4.49441 9.35236 4.49319 9.38944L4.49234 9.41236C4.4922 9.41634 4.49211 9.42005 4.49197 9.42398C4.48977 9.49922 4.48831 9.57441 4.48831 9.64997V11.4476H3.26056C3.15139 11.4476 3.06256 11.3587 3.06256 11.2496V8.05027C3.06256 7.94109 3.15139 7.85227 3.26056 7.85227H4.70628C4.70553 7.85531 4.70483 7.85841 4.70403 7.86141ZM4.43216 6.42656C4.99044 5.12339 5.88884 3.96488 7.0243 3.10083C8.4643 2.00498 10.1847 1.4258 11.9996 1.4258C13.8145 1.4258 15.5349 2.00498 16.975 3.10083C18.1104 3.96488 19.0088 5.12339 19.5671 6.42656H18.7832C17.5746 3.89339 14.9883 2.13867 11.9996 2.13867C9.01091 2.13867 6.42463 3.89339 5.21605 6.42656H4.43216ZM17.1531 6.41728C16.308 6.99647 15.3036 7.31152 14.2691 7.31152C12.9051 7.31152 11.623 6.78019 10.6588 5.81531L10.1895 5.34558L9.68764 5.78048C8.98437 6.38995 8.08386 6.72567 7.15189 6.72567C6.9935 6.72567 6.83609 6.71597 6.68033 6.69708C7.72077 4.83028 9.71502 3.56456 11.9996 3.56456C14.1682 3.56452 16.0751 4.70494 17.1531 6.41728ZM20.7446 20.3055V22.5742H3.25466V20.3055C3.25466 18.2678 4.91234 16.6102 6.94995 16.6102H8.60187V16.7896C8.60187 18.6631 10.1261 20.1873 11.9996 20.1873C13.8731 20.1873 15.3972 18.6631 15.3972 16.7896V16.6102H17.0492C19.0869 16.6102 20.7446 18.2678 20.7446 20.3055ZM10.0308 16.9006C10.0326 16.9011 10.0343 16.9015 10.0361 16.902C10.1055 16.9208 10.1752 16.9382 10.2451 16.955C10.2658 16.96 10.2867 16.9648 10.3074 16.9695C10.3633 16.9824 10.4194 16.9947 10.4756 17.0063C10.4937 17.01 10.5119 17.014 10.5301 17.0176C10.6023 17.0319 10.6746 17.0453 10.7473 17.0575C10.7611 17.0598 10.7749 17.0618 10.7886 17.064C10.8489 17.0738 10.9092 17.0828 10.9698 17.091C10.9914 17.094 11.0131 17.0969 11.0347 17.0996C11.096 17.1075 11.1574 17.1145 11.2189 17.1209C11.2321 17.1223 11.2452 17.1239 11.2585 17.1252C11.3094 17.1301 11.3604 17.1344 11.4115 17.1383C11.4162 17.1387 11.4208 17.1391 11.4255 17.1395C11.4436 17.1408 11.4618 17.1421 11.48 17.1434C11.499 17.1446 11.5181 17.1457 11.5372 17.1468C11.5545 17.1478 11.5718 17.149 11.5891 17.1499C11.5989 17.1504 11.6085 17.1511 11.6183 17.1517C11.6489 17.1532 11.6797 17.1542 11.7104 17.1553C11.7317 17.1561 11.753 17.157 11.7743 17.1576C11.7861 17.1579 11.798 17.1585 11.8098 17.1588C11.873 17.1604 11.9363 17.1613 11.9997 17.1613C12.0632 17.1613 12.1265 17.1604 12.1897 17.1588C12.2015 17.1585 12.2134 17.1579 12.2252 17.1576C12.2465 17.157 12.2677 17.1562 12.2891 17.1553C12.3198 17.1542 12.3506 17.1532 12.3812 17.1517C12.391 17.1512 12.4006 17.1504 12.4104 17.1499C12.4277 17.1489 12.445 17.1478 12.4623 17.1468C12.4814 17.1457 12.5005 17.1447 12.5195 17.1434C12.5377 17.1421 12.5559 17.1408 12.574 17.1395C12.5787 17.1391 12.5833 17.1387 12.588 17.1383C12.6391 17.1344 12.6901 17.1301 12.741 17.1252C12.7542 17.1239 12.7674 17.1222 12.7806 17.1209C12.8421 17.1146 12.9035 17.1075 12.9648 17.0996C12.9864 17.0969 13.0081 17.094 13.0297 17.091C13.0902 17.0828 13.1506 17.0738 13.2109 17.064C13.2246 17.0618 13.2384 17.0598 13.2522 17.0575C13.3248 17.0453 13.3972 17.0319 13.4694 17.0176C13.4876 17.014 13.5058 17.01 13.5239 17.0063C13.5801 16.9947 13.6362 16.9825 13.6921 16.9695C13.7128 16.9648 13.7337 16.96 13.7544 16.955C13.8243 16.9382 13.894 16.9208 13.9634 16.902C13.965 16.9015 13.9668 16.9011 13.9686 16.9006C13.9109 17.9365 13.0499 18.7615 11.9998 18.7615C10.9497 18.7615 10.0885 17.9365 10.0308 16.9006ZM13.8585 12.9049C13.5969 12.3931 13.0646 12.0417 12.4514 12.0417H11.5477C10.6767 12.0417 9.96814 12.7503 9.96814 13.6213C9.96814 14.4923 10.6767 15.2009 11.5477 15.2009H12.4514C13.0674 15.2009 13.6017 14.8463 13.8621 14.3307L15.8994 14.3177C14.8425 15.2021 13.4823 15.7354 11.9996 15.7354C8.64402 15.7354 5.91416 13.0055 5.91416 9.64992C5.91416 9.59897 5.91481 9.5482 5.91617 9.49617L5.91837 9.43622C5.91936 9.40589 5.92034 9.37561 5.9218 9.34603C5.92245 9.33314 5.92325 9.3203 5.92409 9.3075L5.92559 9.28275C5.92733 9.25397 5.92897 9.22509 5.93112 9.19641C5.93112 9.19613 5.93117 9.19584 5.93117 9.19561C5.93234 9.1792 5.93384 9.16289 5.93525 9.14658L5.93787 9.11653C5.93998 9.09248 5.94191 9.06834 5.9443 9.04434C5.94627 9.02517 5.94837 9.00614 5.95053 8.98702L5.95241 8.97033C5.95423 8.95402 5.95606 8.9377 5.95803 8.92148C5.95892 8.91356 5.95972 8.90578 5.9608 8.89772C5.96361 8.87517 5.96666 8.85277 5.96975 8.83031L5.97106 8.82061C5.97153 8.81695 5.97209 8.81325 5.97256 8.80959C5.97533 8.78958 5.97805 8.76952 5.981 8.74955C5.9847 8.72494 5.98864 8.70047 5.99239 8.67712C5.99633 8.65284 6.00027 8.62856 6.00453 8.60433C6.00898 8.57836 6.01381 8.55248 6.01873 8.52628C6.02277 8.50481 6.02684 8.48334 6.03111 8.46197C6.03636 8.43534 6.04189 8.40872 6.0477 8.38144C6.05206 8.36091 6.05656 8.34042 6.06111 8.31994C6.0673 8.29214 6.07372 8.26439 6.08028 8.23702C6.08516 8.21648 6.09022 8.196 6.09528 8.17556C6.10194 8.14889 6.10873 8.12236 6.11553 8.09648C6.11952 8.08139 6.12369 8.06634 6.12781 8.0513C6.46372 8.1172 6.80609 8.15137 7.15203 8.15137C8.21281 8.15137 9.24406 7.83337 10.1149 7.24608C11.2819 8.21189 12.7351 8.73727 14.2692 8.73727C15.5164 8.73727 16.7301 8.38022 17.7708 7.71881C17.7768 7.73662 17.7827 7.75477 17.7888 7.77375L17.7939 7.7895C17.7966 7.79775 17.7994 7.806 17.802 7.8143C17.811 7.84252 17.8196 7.87092 17.8281 7.89923C17.8334 7.91695 17.8388 7.93472 17.844 7.95253C17.8523 7.98113 17.8604 8.00995 17.8684 8.03911C17.8734 8.05753 17.8785 8.07605 17.8834 8.09456C17.8906 8.1218 17.8976 8.14922 17.9046 8.17748C17.9097 8.19783 17.9147 8.21817 17.9196 8.23861C17.926 8.26542 17.9322 8.29237 17.9385 8.32059C17.9431 8.34122 17.9477 8.36189 17.9521 8.38261C17.9577 8.40877 17.963 8.43492 17.9684 8.46164C17.9729 8.48456 17.9773 8.50748 17.9816 8.53045C17.9862 8.55539 17.9909 8.58047 17.9955 8.60747C17.9959 8.60972 17.9963 8.61197 17.9967 8.61422C18.0002 8.63456 18.0035 8.655 18.0068 8.67544C18.0108 8.70014 18.0148 8.72489 18.0186 8.7502C18.0225 8.77659 18.0261 8.80308 18.0297 8.82956L18.0299 8.83139C18.0329 8.85342 18.0359 8.87545 18.0387 8.89739C18.0417 8.92191 18.0444 8.94656 18.0471 8.97122L18.0494 8.9918C18.0515 9.00961 18.0534 9.02742 18.0552 9.04542C18.056 9.05287 18.0565 9.06042 18.0572 9.06792C18.0588 9.0847 18.0603 9.10148 18.0617 9.11827L18.0642 9.14648C18.0656 9.16261 18.067 9.17864 18.0681 9.19392C18.0704 9.22472 18.0722 9.25566 18.074 9.28655L18.0754 9.30787C18.0761 9.31997 18.077 9.33202 18.0776 9.34495C18.0795 9.38447 18.0809 9.42408 18.0821 9.46383L18.0832 9.49519C18.0845 9.54623 18.0852 9.59742 18.0852 9.6488C18.0852 9.64917 18.0852 9.6495 18.0852 9.64987C18.0852 10.8374 17.7429 11.9463 17.1523 12.8839L13.8585 12.9049ZM12.6052 13.6214C12.6052 13.7062 12.5363 13.7752 12.4515 13.7752H11.5477C11.4629 13.7752 11.394 13.7062 11.394 13.6214C11.394 13.5366 11.4629 13.4676 11.5477 13.4676H12.4515C12.5363 13.4676 12.6052 13.5366 12.6052 13.6214Z" fill="#374151"/>
</svg>
