<svg width="12" height="12" viewBox="0 0 12 12" fill="none" xmlns="http://www.w3.org/2000/svg">
<g clip-path="url(#clip0_613_15609)">
<path d="M6 12C9.31371 12 12 9.31371 12 6C12 2.68629 9.31371 0 6 0C2.68629 0 0 2.68629 0 6C0 9.31371 2.68629 12 6 12Z" fill="url(#paint0_linear_613_15609)"/>
<path fill-rule="evenodd" clip-rule="evenodd" d="M2.71601 5.93599C4.46513 5.17393 5.63148 4.67153 6.21507 4.42879C7.88134 3.73574 8.22757 3.61535 8.45324 3.61137C8.50288 3.6105 8.61386 3.6228 8.68574 3.68113C8.74644 3.73038 8.76314 3.79692 8.77114 3.84362C8.77913 3.89031 8.78908 3.99669 8.78117 4.07982C8.69087 5.02856 8.30017 7.3309 8.1014 8.39351C8.01729 8.84314 7.85168 8.9939 7.69135 9.00865C7.34292 9.04072 7.07834 8.77838 6.74087 8.55717C6.21279 8.21101 5.91446 7.99552 5.40187 7.65773C4.80948 7.26735 5.1935 7.0528 5.5311 6.70215C5.61945 6.61038 7.15465 5.21401 7.18436 5.08733C7.18808 5.07149 7.19153 5.01244 7.15644 4.98125C7.12136 4.95007 7.06958 4.96073 7.03222 4.96921C6.97925 4.98124 6.13564 5.53883 4.50138 6.642C4.26192 6.80643 4.04503 6.88655 3.8507 6.88235C3.63647 6.87772 3.22438 6.76122 2.91803 6.66164C2.54228 6.53949 2.24364 6.47492 2.26964 6.26748C2.28319 6.15944 2.43198 6.04894 2.71601 5.93599Z" fill="white"/>
</g>
<defs>
<linearGradient id="paint0_linear_613_15609" x1="6" y1="0" x2="6" y2="11.911" gradientUnits="userSpaceOnUse">
<stop stop-color="#2AABEE"/>
<stop offset="1" stop-color="#229ED9"/>
</linearGradient>
<clipPath id="clip0_613_15609">
<rect width="12" height="12" fill="white"/>
</clipPath>
</defs>
</svg>
